<?xml version="1.0" encoding="UTF-8"?>
<svg id="Layer_1" xmlns="http://www.w3.org/2000/svg" version="1.1" viewBox="0 0 615.4 910.8">
  <!-- Generator: Adobe Illustrator 30.5.1, SVG Export Plug-In . SVG Version: 2.1.4 Build 3)  -->
  <defs>
    <style>
      .st0 {
        fill: #191919;
      }
    </style>
  </defs>
  <path class="st0" d="M356.7,498.6c.8,27.3,11,49.6,26.9,69.6,18.3,22.9,12.6,43.7-1.4,67.7-10.3-22.3-33.8-6.5-45.1-34,2.1,12.7,4.7,24.1,2.9,36.6-2.5,21.5-21,31.7-32.3,50.1-12-19.4-31.3-29.6-32.5-53-1.2-11.6,1.3-22,3.2-33.7-11.2,27.5-34.8,11.7-45,34-14-24-19.7-44.8-1.4-67.7,16-20,26.1-42.4,26.9-69.6,34.3,33.4-10.2,48.5-11.1,84.9,6.5-17.9,24-44.7,37.9-38.4,6,2.7,10.7,10,10.6,16.6l-.2,27.6c-.1,16.6,2.9,32.3,11.7,47.3,7-12.4,11.4-24.9,11.4-38.6l-.2-31.9c0-8.4,3.1-17.3,11-21,13.4-6.3,31.4,20.5,37.8,38.5-.8-36.4-45.4-51.5-11.1-84.9Z"/>
  <path class="st0" d="M499.7,512.9c7.5-42.3-35.9-69.2-75.4-67.3,20.8-11.3,51.4-6.3,70,7.9-7.2-11.6-18.7-17.4-32.8-19.9,22.7-9,48.3-2.7,65.9,15.3-12.6-21.5-37.6-30.4-62.7-25.4,6.3-6.8,15.1-7.6,23.6-8.1,11.9-.6,22.4,1.7,33.4,5.9-25.6-18.2-52-10.4-79.7,3.5,14.2-38.7,59.2-56.1,94.9-37.7,4.1,5.5-2.8,15.4-8.3,18.1,25-3.9,36.6,2.7,47.9,24.3-8,5.7-15.6,6.2-24.8,7,8,12.9,23.2,18.2,37.9,15.1l25.7-5.5c2,24.8-15.4,45.5-40.3,49-12.5,1.7-25.2.3-34.2-8,.2,12.6-4.6,23.4-15.5,27.5-8,3-16.5,1.6-25.5-1.6Z"/>
  <path class="st0" d="M191.2,445.6c-39.7-1.8-82.8,25.1-75.4,67.1-8.1,3.4-17.2,4.9-25.4,1.8-10.9-4.1-15.7-14.9-15.5-27.5-9,8.3-21.7,9.8-34.2,8C16.4,491.5-1,472.4,0,446.5l24.6,5c15.2,3.1,30.9-1.4,39.2-14.9-9.7-.8-18.1-1.4-25-7.5,12.6-21.9,23.3-27.6,48-23.8-5.5-2.7-12.5-12.6-8.3-18.1,35.7-18.4,80.8-1,94.9,37.7-27.6-14-54.2-21.7-79.7-3.6,10.5-4,20.5-6.4,31.9-5.9,9,.3,18.3,1,25.1,8.1-25.2-4.9-50.1,3.9-62.7,25.4,17.2-17.4,41.6-24.5,65.9-15.4-12.6,2.4-25.3,7.5-32.7,20,18.2-14.2,49.1-19.2,69.9-7.9Z"/>
  <path class="st0" d="M243.8,484.2c13.8,25.5-.3,64.4-21.3,84.6-11.4,11-26.9,15.7-41.4,10.1-3.7-13.6,8.5-21.3,2.4-27.7-4.5,22-32.9,16-27.4,38-20.1-7.7-32.9-22.7-25.6-42.7s12.6-20.6,21.1-29.4c-7,3-18.8,4.7-23.2-1.8-2.5-22.9,6-42,26.6-52.9,18.4-9.7,40.5-10.7,59.9-3.3,7,2.7,14,6.3,17,13.8-29.2-9-60.3.7-75.3,26.5,15.8-10.2,35.8-25.5,52.1-18.1-17.1,5.4-28.1,23.3-31.2,41.6,9.7-16,41.3-42.6,50.9-37.8,7.4,3.7,3.5,35.7-3.1,52.1,12.5-14.6,16.9-32.7,18.3-53Z"/>
  <path class="st0" d="M434.3,578.9c-37.7,12.4-66.4-32.6-68-70.5-.4-8.7.3-17.1,5.3-24.2,1.5,20.3,5.8,38.5,18.3,53-6.6-16.4-10.5-48.4-3.1-52.1,9.5-4.8,41.3,21.8,50.9,37.8-2.9-18.2-14.1-36.4-31.2-41.6,17.1-7.7,36.9,8.7,52,17.7-15.6-26.1-46.5-34.9-75.1-26.2,2.7-7.2,9.3-10.7,15.9-13.3,19.6-7.8,42.2-6.9,60.9,2.9,20.7,10.9,29.1,30,26.6,52.9-4.5,6.5-16.2,4.8-23.2,1.8,8.5,8.9,16.9,17.7,21.1,29.4,7.3,20-5.5,34.9-25.6,42.7,5.4-22-23-16-27.4-38-6,6.4,6.1,14.1,2.4,27.7Z"/>
  <path class="st0" d="M275,468.4c-31.4-14.9-65.6-51.7-69.5-84.8-2.3-19.4,2.4-38.8,11.3-55.8,9.4-17.9,26.1-26.4,46.7-28-7.6-2.7-16,.2-23.5,3.5-19,8.6-30.6,26.2-36.2,45.8-16.3,57.7,27.1,97.7,74.1,126.1-20.4-5.2-37.5-15.8-53.6-28.1-33-25.1-54.3-65.3-47.4-107,6-.2,8.7,2.6,14.4,6-6.8-16-7.3-35.2,9.1-43,2.5-.8,4.7,4.3,6.1,6,4.2-21.7,22-35.3,43.6-34.7,1.1,4.8,0,7.5-1.3,10.9,13-4.6,26.7-1.6,35.7,8.9s7.8,24.9-2.9,33.9c-2-8.3-6.1-14.6-14.6-14.6,2.4,4.6,4,8.8,2.7,14.1s-4.2,8.6-9.7,10.2c-2.6-11.7-13.2-20.4-24.9-15.4,8.3.9,15.6,9.1,11.8,17.2-16.7-4.9-32.2,13.2-33.7,30.3s3.3,33.7,14.2,47.3c.2-6.9,2.8-12.9,6.7-16.8,5.2-5.1,11.4-7.3,19.8-5.2-4.2,14.5-6,28.7-1.5,42.6,4.1,12.7,14,20,22.5,30.7Z"/>
  <path class="st0" d="M399.3,328.6c15.6,30.8,16.1,62.1-3.8,91-14,20.3-32,37.6-54.9,48.8,8.4-10.8,18.3-18.1,22.4-30.8s2.7-28.1-1.5-42.5c8.1-2.1,14.1,0,19.1,4.5s7.3,10.2,7.3,17.4c18.6-23.1,22-60.8-4-76.1-4.9-2.9-10.1-3.4-15.7-.8-3.2-10.3,3.6-16,12.1-18.1-11.8-4.7-22.3,3.8-25,15.6-5-1.5-8.2-5.5-9.3-9.1-1.6-5.2-.6-9.5,2.3-15-7.8-.6-12.6,5.7-14.5,14.4-11.1-9.3-11.8-24.4-2.2-34.6s22.4-12.5,35.1-8.1c-1.4-3.5-2.4-6.2-1.3-10.9,21.5-.6,39.3,13,43.6,34.8,1.6-2.4,4.1-7.2,6.8-5.9,14.5,6.8,15.9,27,8.1,43,5.3-3,8.4-6.4,14.6-6.1,6.9,40.7-13.7,80.7-45.8,105.7-16.5,12.9-34.2,23.9-55.1,29.4,47.3-28.6,91.1-69,73.8-127.2-5.8-19.5-17.8-37.1-36.9-45.1-7.3-3.1-15.3-5.9-22.5-3.1,21.1,1.5,38,10.5,47.3,28.9Z"/>
  <path class="st0" d="M320.4,762.4c-1-8.9-7-18.3-6.8-26.9.5-22.4,16.8-39.9,36.2-47.2-18.8-1.7-32.5,18.4-42.1,36.1-9.6-17.7-23.3-37.8-42.1-36.1,19.4,7.3,35.7,24.8,36.2,47.2.2,8.8-6,17.8-6.8,27.8-5.4-12.3-9.5-23.1-20.9-28.9s-21.5-2.9-32.1,3.4c-2.2-6.3.1-14.5,6.3-18.4,8.9-5.7,19.6-4.6,28.6-.2-5.8-9.1-14.6-16.9-25.8-17.4-8.1-.3-15.1,3.9-22,9.9-4-9.5-2.8-20.7,4.3-29.1,9.4-11.1,24.2-16.5,38.5-14.6,12.2,1.6,20.4,10.4,21,22.7l8.1-1.4,6.7,11.5,7.3-11.6c1.9.3,4.6,1.9,7.5,1.4.7-11.5,8.1-20.3,19.8-22.3,14-2.4,28.6,2.5,38.4,12.9,8.1,8.5,10,20.4,5.6,30.7-6.9-6-13.8-10.2-22-9.9-11.3.4-20.2,8.5-25.7,17.3,9.9-4.7,20.8-5.3,29.3.9,5.6,4.1,7.5,11.9,5.5,17.9-10.7-6.5-21.9-8.5-32.1-3.5-10.9,5.7-14.9,15.5-20.9,28.2Z"/>
  <path class="st0" d="M534.4,371.6c-31.4-4.5-65.9-5.1-85.5,22-.8-31,31.8-47.2,61.4-46.4-13.2-5.2-27-4.9-41.4.9,13.4-15.9,32.7-21.2,51.5-24.5-20.5-1.9-39.8,5.2-53.8,20.2,4.6-16.4,15.3-27.8,27.7-38.2-10.1,2.8-17.2,10.5-23.7,18.4-12.4,14.9-17.4,32.7-24.2,50.8-2.4-25.2,5.4-49.3,20.5-67.3,14.3-17,35.4-25.1,56.4-19.8,1,7.9-1.8,13.3-8.2,17.9,10.4,2.6,19.8,1.5,28.4-2.9,6.1-3.1,9-9,8.3-16.6,6.3-1.3,12.2.7,15.9,4.5,9.4,9.5,2,27.3-14.3,36.5-2.9,1.6-4.4,3.8-4.3,6.6s1.9,5.9,5.4,7c4.2,1.3,8.2-1.1,11.8-3.8,7.5,8,6.3,19.3-1.6,26.3-8.1,7.3-19.3,10-30.3,8.1Z"/>
  <path class="st0" d="M95.6,323.7c17.8,3.1,36.8,8.2,50.7,23.8-13.9-4.6-27.7-5.9-41-.3,29.5-.9,62.1,15.3,61.4,46.3-18.7-26.5-54.9-27.1-85.5-22-11.3,1.9-22.9-1-31.1-8.8s-8.1-18-.9-25.6c3.4,2.4,6.8,4.7,10.8,4s5.9-3.3,6.3-6-.9-6.1-4.2-7.9c-16.3-9.1-23.7-27-14.3-36.5s9.6-5.8,15.9-4.5c-.8,8,2.7,14.1,9.3,17.1,8.5,3.9,17.4,5,27.5,2.4-6.4-4.6-9.2-10-8.2-17.9,21-5.4,42.1,2.8,56.4,19.8,15.1,18,22.9,42.1,20.6,67.3-6.4-16.4-10.6-32.6-21.1-46.7-7.1-9.6-15-18.9-26.8-22.5,12.4,10.5,23.1,21.8,27.7,38.2-13.4-14.4-32.3-22.2-53.3-20.1Z"/>
  <path class="st0" d="M140.5,261.2c16.5,10.3,34,33.1,27.8,55.4-8.2-24.1-28.4-28.9-50.8-37.2s-15.4-6-21.8-12.7c7.4-6,9.7-14.6,18-16.5-9.5-11.5-13.8-25.9-10.5-40.6,23.5-5.5,48.9-8.8,57.9,12.5,1.4-7.5,4.4-13,9.7-18.5,29.2,15.2,31.1,66.4,9.6,93.2,1.1-19.1,5.3-35.6-1-52-.2,12.5,3,24-3.9,35.9-3.8-25.4-16.9-49.1-42.8-54.1,20.4,9.8,34.1,31.1,36.5,55.4-8-9.3-15.6-18.3-28.8-20.7Z"/>
  <path class="st0" d="M447.3,316.5c-6.2-21.3,10.4-44.9,28.2-55.5-12.6,2.1-21,11-29.2,20.9,2.2-24.2,16.1-45.6,36.4-55.4-25.9,5.1-39,28.7-42.8,54.1-6.8-11.9-3.7-23.4-3.9-35.9-6.2,16.5-2.1,33-.9,52-21.1-26.3-20.1-76,8.9-93.2,6,4.7,8.8,11.3,10.4,18.5,9-21.5,35.1-17.9,57.9-12.5,3.3,14.9-1.3,29.5-10.6,40.7,8.4,1.6,10.7,10.5,18.1,16.4-6.3,6.7-13.7,9.7-21.8,12.7-22.3,8.3-42.6,13.1-50.8,37.2Z"/>
  <path class="st0" d="M342,451.9c-5.8,14.7-19.7,22.3-34.3,17-14.6,5.3-28.4-2.4-34.1-16.5-2.3-5.4-3.2-10.9-8-16.1,7.7-5.6,19-5.3,26,3.9,2.7-6.8,8.4-16,16.1-17.1,6.9.9,13.6,10,15.7,17,6.5-7.7,16.7-10.3,26.5-4-4.3,4.4-5.6,9.9-7.9,15.8ZM307.9,462.5c8.2-10.3,6.8-22.1,0-32.5-7.5,9.5-8.8,23,0,32.5Z"/>
  <path class="st0" d="M306.1,295.5c-21-25.6-47.3-47.9-82.3-40.9-3.4-4.3-4.1-9.9-2-15s6.2-7.3,11.7-8.5c34.6-7.7,70.2,25,72.6,64.4Z"/>
  <path class="st0" d="M391.7,254.6c-34.4-6.9-61.6,14.9-82.5,41.5,2.1-22.3,12.2-42.1,29.7-54.7,19.4-14,47.4-15.6,54.4-2.8,2.7,5.1,2.1,11.3-1.5,15.9Z"/>
  <path class="st0" d="M307.7,174.2c-10.3-27.3-25.5-94.2-.6-95.8,5.1-.3,9.4,3.1,11.8,8.2,8.4,23.7-2.3,60.6-11.1,87.6Z"/>
  <path class="st0" d="M311.8,479.7c16.2,14.9,35.5,43,19.6,54.9-3.5,2.6-7.9,1.8-12.5.9-1.1,5.1-4.3,10.6-10.2,11.4-6.1.8-11-5.7-11.9-11.4-4.8.9-9,1.7-12.6-.9-15.8-11.6,3.3-40,19.6-54.8-4.3,19-19.2,38.4-1.9,40.2-1.3,4.2,1,11,5.9,11,4.9,0,7.2-6.7,5.9-11,3.2-.5,5.6-1,6.8-2.6,1.8-2.4,1.8-5.6.9-8.5l-9.6-29.2Z"/>
  <path class="st0" d="M346.1,207.5c-17.7,18-28.5,38-36.5,62.5.4-28.7,10.1-69.4,28.8-91.2s19.5-14,24.5-8.5-6.4,26.7-16.8,37.2Z"/>
  <path class="st0" d="M306,269.4c-7.1-17.7-13.6-35.8-26.8-50.7-9.6-10.7-19.2-20.7-26-33.4-2.1-4.2-4.2-10.6-.8-14.5,9.1-10.6,29.6,9.5,37.3,27.5,9.3,22.2,15.7,45.3,16.3,71.1Z"/>
  <path class="st0" d="M307.7,828.9c-6.1-17.9-12-34.7-32.5-37,4.5-8.8,13.8-10.7,22.6-7.2-1.3-6.7-.8-12.5,2.1-18.2l7.9-15.6,7.9,15.6c2.9,5.7,3.3,11.4,2.1,18.2,8.8-3.5,18.1-1.5,22.6,7.2-8.2,1-14.1,3.9-18.8,9.3-7.1,7.4-9.5,16.4-13.8,27.8Z"/>
  <path class="st0" d="M308,12.5c-5.2,6.4-4.6,14.1-4.6,21.3l-.2,34.1-11.5-37c-1.5-5-3.8-9.2-10-11.5,3.3-4.5,6.9-3.5,12.2-2.8C295,10.2,300.1,0,307.8,0c7.1,0,12.8,9.6,13.4,16.2,4.4.4,7.5-1.6,12.7,2.4-6.4,3.4-9.1,8.1-11,14.3l-10.5,34.8-.2-29.7c0-8.5.9-16.7-4.1-25.6Z"/>
  <path class="st0" d="M303,204.8c-7.6-21.4-16.1-40.9-32.2-57.2-3.2-3.2-5.1-9.7-3.5-13.5s6.1-5.3,9.3-5.7c10.5-1,16.9,13.3,20.9,26,2.9,16.2,7.8,31.8,5.5,50.4Z"/>
  <path class="st0" d="M345,147.2c-16.5,16.8-25,35.9-32.7,58.4-2.1-24.2,6.7-76.8,25.1-77.2s8.7,1.1,10.8,5.7c1.5,3.3,0,9.8-3.2,13.2Z"/>
  <path class="st0" d="M359.3,64.5l1.2-2.8c.2-.4.4-1.9,0-2-5.7-1.2-22.3,25.3-31.1,36.7l10.7-34.3c1.2-3.7.8-7.4-2.1-10.9,4.5-2.1,7.5.1,10.7,3.9,4.6-3.2,13.6-9,19.2-4.6s2.3,14.1.7,19.2c3.3,2.6,6.5,3,6.7,8.7-14.1-3.3-28.8,14.2-43.3,22,9.1-12.5,19.8-22,27.6-35.8Z"/>
  <path class="st0" d="M286.2,96.3c-10.1-12.7-17.8-27.7-29.7-36.5-.9-.7-1.8-.2-1.6,1,2.4,10.6,20.2,27,28.9,39.4-14.5-7.8-29.3-25.3-43.3-21.9.1-5.7,3.3-6,6.7-8.7-1.6-5.2-4.1-15.3.7-19.2s14.7,1.1,18.8,4.7c3.1-2.7,4.7-5.6,10.8-4.7-2.8,4.9-3.1,9.1-1.5,13.9l10.2,32Z"/>
  <path class="st0" d="M290.5,431.9c-6.6-4.2-12.9-6.5-20.4-4-7.4-8.7-8-20.4-.8-29.6,8.5-1.2,17,2.5,22,10.1-1.3,8-1.8,15-.7,23.5Z"/>
  <path class="st0" d="M345.5,427.9c-7.6-2.5-13.8-.2-20.4,4,1.1-8.4.6-15.5-.7-23.5,4.9-7.5,13.4-11.3,22-10.1,7.2,9.2,6.6,20.9-.8,29.6Z"/>
  <path class="st0" d="M387,125.7l-23.4,6.4c10.6-7.7,21.6-12.7,30.5-21.8.3-1.2,0-2.3-.3-2.3-6,.2-20.8,13.9-31.7,20l15.2-21.9c2-2.9,2.7-6.3,1.9-10.7,5.1,1.3,4.9,4.2,8.1,6.3,4.2-1.5,12.1-2.9,14.9,1s-1.3,12.1-4.4,15.6c2.4,2.6,4.4,4.3,3.8,8.4-4.8-2.3-9.2-2.6-14.6-1.1Z"/>
  <path class="st0" d="M251.5,132.1c-13.2-1.5-25.3-11-37.6-5.3-.5-4.2,1.4-5.8,3.8-8.4-3-3.4-7.6-11.2-4.3-15.5s11.4-2,15.7-1.1c2.5-2.8,2.8-5.1,7.4-6.1-1.1,5.3.4,8.9,2.9,12.4l14.1,20c-10.9-6.1-25.4-19.6-31.7-19.9s-.6,1.1-.3,2.2c8.4,9.1,19.4,13.5,30,21.8Z"/>
  <ellipse class="st0" cx="307.7" cy="858" rx="13.6" ry="13.6"/>
  <path class="st0" d="M308.2,416.8c-5.9,2-9.3,6.1-13.5,9.8-1.3-14.5,4.7-25.9,13-36.9,8.3,11,14.3,22.4,13,36.9-3.9-3.5-7.1-7-12.6-9.8Z"/>
  <path class="st0" d="M229.9,174.9c-9.9,2.9-21.5-1.8-30.1,4.9-3.8-.8-.3-5.6-.8-7-1.8-3.2-8.9-7.9-6.5-12.7s8.4-4.5,12.6-4.5l4-6.7c5.1,11.1,15.3,14.4,22.6,22.4-11.6-2.4-20.3-9.1-31.6-8,9.2,7.4,19.6,7.6,29.9,11.7Z"/>
  <path class="st0" d="M416.9,180.3c-9.7-7.3-20.3-2.6-31.3-5.4,9.9-4.2,21.1-4.1,30-12.1-11.9-.2-20.4,5.8-31.9,8.6,6.3-7.8,18.5-11.3,22.2-22.7,3,2.1,2.7,4.2,4.5,6.8,4,0,10.8.6,12.6,4.6s-3.1,9.3-6.7,11.6c0,3.1,1.7,4.7.5,8.6Z"/>
  <path class="st0" d="M323.1,404.3c-1.9-4.9-3.7-9.2-8-14-2.4-5.7,1.3-15.9,8.5-16.5s14.1,9.3,14.3,17.1c-8-.2-12.6,3.5-14.9,13.4Z"/>
  <path class="st0" d="M292.3,404.9c-1.6-9.3-6.2-14.6-14.8-14.1.2-7.8,5.4-17.8,14.4-17.1,7.2.6,10.9,10.9,8.5,16.5-4.3,4.9-6.1,9-8.1,14.6Z"/>
  <ellipse class="st0" cx="382.1" cy="199.1" rx="10.3" ry="10.3"/>
  <ellipse class="st0" cx="233.4" cy="199.1" rx="10.3" ry="10.3"/>
  <ellipse class="st0" cx="307.7" cy="901.3" rx="9.5" ry="9.5"/>
</svg>